<?xml version="1.0" standalone="no"?>
<!DOCTYPE svg PUBLIC "-//W3C//DTD SVG 20010904//EN"
 "http://www.w3.org/TR/2001/REC-SVG-20010904/DTD/svg10.dtd">
<svg version="1.0" xmlns="http://www.w3.org/2000/svg"
 width="1024.000000pt" height="1024.000000pt" viewBox="0 0 1024.000000 1024.000000"
 preserveAspectRatio="xMidYMid meet">

<g transform="translate(0.000000,1024.000000) scale(0.100000,-0.100000)"
fill="#000000" stroke="none">
<path d="M4840 8347 c-586 -294 -991 -425 -1590 -513 -135 -20 -259 -42 -276
-50 -17 -8 -36 -26 -43 -40 -14 -32 -15 -706 -1 -929 38 -587 178 -1215 365
-1637 137 -309 370 -657 596 -892 274 -285 572 -513 934 -716 284 -160 295
-161 472 -69 818 427 1391 1026 1683 1760 161 403 250 793 310 1360 27 250 40
1078 18 1118 -22 42 -66 58 -203 76 -268 34 -645 114 -901 191 -198 59 -458
168 -765 320 -188 93 -302 144 -323 144 -20 0 -118 -44 -276 -123z m482 -246
c329 -170 556 -261 888 -356 279 -80 546 -136 808 -170 l52 -7 0 -271 c-1
-712 -78 -1249 -251 -1753 -74 -214 -133 -348 -229 -519 -151 -270 -249 -403
-455 -614 -259 -265 -595 -508 -938 -677 l-78 -39 -92 47 c-214 109 -458 269
-657 429 -135 109 -218 187 -339 319 -413 452 -645 962 -780 1710 -61 341 -81
601 -81 1062 l0 306 63 7 c170 18 425 68 647 126 394 104 660 204 1005 380
127 65 233 118 237 118 4 1 94 -44 200 -98z"/>
<path d="M4814 7396 c-17 -13 -19 -30 -22 -198 -2 -101 1 -208 5 -238 l8 -55
95 0 95 0 5 95 5 95 93 0 92 0 0 141 c0 124 -2 143 -18 157 -16 14 -44 17
-178 17 -122 0 -165 -3 -180 -14z"/>
<path d="M3752 7388 c-17 -17 -17 -849 0 -866 14 -14 843 -18 852 -3 3 5 6
204 6 442 l1 434 -423 3 c-321 2 -427 -1 -436 -10z m688 -430 l0 -268 -265 0
-265 0 0 263 c0 145 2 266 4 268 2 2 122 4 265 4 l261 0 0 -267z"/>
<path d="M4077 7074 c-4 -4 -7 -58 -7 -121 l0 -113 105 0 105 0 0 119 0 119
-98 1 c-54 1 -101 -2 -105 -5z"/>
<path d="M5452 6958 l3 -443 421 -3 c348 -2 423 0 433 12 8 10 10 132 9 442
l-3 429 -433 3 -432 2 2 -442z m696 -3 l2 -265 -265 0 -265 0 0 268 0 267 262
-2 263 -2 3 -266z"/>
<path d="M5780 6960 l0 -120 100 0 100 0 0 110 c0 61 1 113 3 118 1 4 -44 8
-100 10 l-103 3 0 -121z"/>
<path d="M5107 6834 c-4 -4 -7 -43 -7 -86 l0 -78 -90 0 c-49 0 -91 1 -92 2 -2
1 -13 -4 -25 -11 -22 -11 -23 -18 -25 -169 l-3 -157 -198 -3 -198 -2 -9 -26
c-13 -34 -13 -320 0 -345 9 -16 22 -19 95 -19 56 0 86 4 92 13 4 6 10 50 13
97 l5 85 95 0 95 0 3 -149 c1 -90 7 -155 14 -163 7 -9 37 -13 93 -13 56 0 86
4 93 13 7 8 13 73 14 163 l3 149 329 3 c249 2 332 5 338 15 11 17 10 139 -2
157 -8 12 -49 16 -232 20 l-223 5 -5 250 -5 250 -80 3 c-45 1 -84 0 -88 -4z"/>
<path d="M5952 6328 c-14 -14 -17 -205 -4 -226 6 -9 35 -12 108 -10 l99 3 3
100 c4 152 9 145 -101 145 -59 0 -97 -4 -105 -12z"/>
<path d="M3752 6288 c-17 -17 -17 -329 0 -346 9 -9 81 -12 264 -12 280 0 264
-4 264 70 0 20 -6 42 -13 48 -7 6 -64 13 -128 14 l-114 3 -2 95 c-4 152 7 140
-136 140 -82 0 -127 -4 -135 -12z"/>
<path d="M6473 6055 c-18 -7 -260 -237 -540 -509 -279 -273 -511 -496 -515
-496 -3 0 -75 75 -158 168 -83 92 -165 175 -183 185 -71 38 -162 10 -200 -63
-24 -47 -17 -120 17 -165 46 -60 416 -465 439 -479 36 -24 72 -28 118 -16 38
10 77 45 284 248 608 598 908 899 922 926 8 15 15 47 16 70 3 108 -98 175
-200 131z"/>
<path d="M5306 5904 c-12 -11 -16 -36 -16 -98 0 -117 0 -117 140 -114 l115 3
3 100 c4 125 3 125 -129 125 -75 0 -101 -4 -113 -16z"/>
<path d="M3756 5757 c-16 -12 -17 -38 -14 -337 l3 -325 45 -79 c25 -44 59 -94
76 -113 l31 -33 344 0 c189 0 350 4 357 9 18 11 20 855 1 877 -16 20 -815 21
-843 1z m684 -437 l0 -270 -265 0 -265 0 0 270 0 270 265 0 265 0 0 -270z"/>
<path d="M4070 5320 l0 -120 105 0 105 0 0 120 0 120 -105 0 -105 0 0 -120z"/>
<path d="M1501 2879 c-184 -36 -291 -203 -237 -367 33 -97 115 -154 287 -197
179 -45 224 -75 223 -146 -1 -21 -8 -46 -15 -56 -37 -44 -159 -68 -226 -42
-42 16 -82 58 -89 96 l-6 33 -105 0 -105 0 7 -45 c15 -106 83 -193 188 -241
58 -27 70 -29 187 -29 116 0 129 2 185 28 112 52 174 134 183 243 9 111 -40
199 -142 259 -23 13 -104 42 -180 64 -77 22 -151 48 -164 58 -37 28 -48 68
-29 108 45 93 230 83 274 -16 l17 -39 102 0 101 0 -8 43 c-11 61 -26 95 -59
136 -70 90 -244 139 -389 110z"/>
<path d="M2355 2853 c-24 -60 -365 -957 -365 -960 0 -2 48 -2 107 -1 l106 3
37 105 38 105 190 3 190 2 38 -110 39 -110 107 0 c60 0 108 2 108 4 0 3 -166
441 -303 801 l-65 170 -110 3 c-97 2 -110 1 -117 -15z m198 -450 l44 -122
-128 -3 c-71 -2 -129 -2 -129 -1 0 2 113 298 126 333 4 10 13 -3 24 -35 10
-27 38 -105 63 -172z"/>
<path d="M3050 2380 l0 -490 100 0 100 0 2 193 3 192 203 2 204 2 0 86 0 85
-204 3 -203 4 -3 116 -3 117 226 0 225 0 0 90 0 90 -325 0 -325 0 0 -490z"/>
<path d="M3850 2380 l0 -490 321 2 321 3 1 88 2 87 -222 0 -223 0 0 115 0 115
200 0 200 0 0 90 0 90 -200 0 -200 0 0 105 0 105 220 0 220 0 0 90 0 90 -320
0 -320 0 0 -490z"/>
<path d="M4650 2380 l0 -490 325 0 325 0 0 90 0 90 -225 0 -225 0 0 115 0 115
205 0 205 0 0 90 0 90 -205 0 -205 0 0 105 0 105 223 0 222 0 -2 87 -2 88
-320 3 -321 2 0 -490z"/>
<path d="M5460 2380 l0 -490 96 0 96 0 -4 339 c-2 187 -2 339 -2 338 1 -1 23
-40 49 -87 26 -47 123 -199 214 -337 l166 -253 92 0 93 0 0 490 0 490 -102 0
-101 0 6 -330 5 -330 -82 138 c-46 75 -140 224 -209 330 l-126 192 -96 0 -95
0 0 -490z"/>
<path d="M6370 2780 l0 -90 145 0 145 0 0 -400 0 -400 100 0 100 0 0 400 0
400 145 0 145 0 0 90 0 90 -390 0 -390 0 0 -90z"/>
<path d="M7272 2383 l3 -488 98 -3 97 -3 0 176 0 175 73 0 72 0 84 -142 c47
-79 93 -158 104 -175 l19 -33 110 0 c99 0 110 2 104 17 -4 9 -54 95 -113 190
-58 96 -104 175 -102 177 2 1 20 9 38 16 48 19 98 65 124 114 18 34 22 57 22
141 0 89 -3 106 -27 150 -50 95 -124 147 -234 165 -33 6 -152 10 -267 10
l-207 0 2 -487z m466 293 c94 -48 106 -177 23 -233 -31 -21 -45 -23 -162 -23
l-129 0 0 138 0 137 119 -2 c85 -1 128 -6 149 -17z"/>
<path d="M8211 2558 l179 -313 0 -175 0 -175 97 2 98 1 3 184 3 183 146 260
c80 143 157 279 170 303 l25 42 -114 0 -113 0 -31 -57 c-17 -32 -66 -125 -109
-207 l-78 -148 -17 28 c-9 16 -59 109 -111 207 l-93 177 -117 0 -116 0 178
-312z"/>
</g>
</svg>
